<svg width="24" height="24" viewBox="0 0 24 24" fill="none" xmlns="http://www.w3.org/2000/svg">
<path d="M19.6693 3H4.32965C3.59545 3 3 3.57759 3 4.28944V19.7109C3 20.4224 3.59545 21 4.32965 21H19.6693C20.4046 21 21 20.4221 21 19.7109V4.28944C21 3.57722 20.4042 3 19.6693 3ZM8.4559 18.0683H5.73724V9.94045H8.4559V18.0683ZM7.09675 8.83015H7.07854C6.16662 8.83015 5.57663 8.20588 5.57663 7.42599C5.57663 6.62873 6.18483 6.02183 7.1146 6.02183C8.04473 6.02183 8.61687 6.62873 8.63508 7.42599C8.63508 8.20588 8.04437 8.83015 7.09675 8.83015ZM18.2595 18.0683H15.5408V13.719C15.5408 12.6268 15.1475 11.8813 14.1638 11.8813C13.4129 11.8813 12.9656 12.384 12.7686 12.8696C12.6969 13.043 12.6794 13.2855 12.6794 13.5286V18.0679H9.96073C9.96073 18.0679 9.99642 10.7019 9.96073 9.94009H12.6794V11.0906C13.0407 10.5369 13.6867 9.74828 15.13 9.74828C16.9185 9.74828 18.2598 10.9103 18.2598 13.4071V18.0683H18.2595Z" fill="#DBDFE1"/>
</svg>
