<svg width="24" height="24" viewBox="0 0 24 24" fill="none" xmlns="http://www.w3.org/2000/svg">
<path d="M1.7561 4.875C1.61422 4.875 1.5 4.99079 1.5 5.13462V5.13462C1.5 5.29843 1.57561 5.45306 1.7049 5.55366L11.3859 13.0862C11.7471 13.3672 12.2529 13.3672 12.6141 13.0862L22.2951 5.55366C22.4244 5.45306 22.5 5.29843 22.5 5.13462V5.13462C22.5 4.99079 22.3858 4.875 22.2439 4.875H1.7561ZM3.11406 8.70618C2.45722 8.19515 1.5 8.66322 1.5 9.49544V18.8654C1.5 19.0092 1.61422 19.125 1.7561 19.125H22.2439C22.3858 19.125 22.5 19.0092 22.5 18.8654V9.49544C22.5 8.66322 21.5428 8.19515 20.8859 8.70618L12.3121 15.3768C12.2226 15.4465 12.1129 15.4843 12 15.4843C11.8871 15.4843 11.7774 15.4465 11.6879 15.3768L3.11406 8.70618Z" fill="#DBDFE1"/>
</svg>
