<svg width="56" height="56" viewBox="0 0 56 56" fill="none" xmlns="http://www.w3.org/2000/svg">
<rect width="56" height="56" rx="28" fill="#F9F9F9"/>
<path d="M25.9489 24.3761L25.9489 24.376C27.7724 21.5668 30.4351 20.2017 33.6615 19.1988C33.9934 21.9103 34.1021 24.4322 33.3728 26.9906C32.6042 29.6845 30.9973 31.6357 28.4596 32.5421C28.1301 32.6598 27.8186 32.8775 27.597 33.1971C26.0807 35.3843 25.2375 37.3806 25.1847 39.0729C25.1588 39.8734 25.3074 40.5832 25.6412 41.186C25.9766 41.7915 26.4644 42.2268 27.0164 42.5295C28.0813 43.1135 29.4238 43.2259 30.6067 43.1967L30.607 43.1967C38.8723 42.9895 45.5198 36.2721 45.5198 28.0008C45.5198 19.5986 38.6585 12.7994 30.2115 12.7994C21.981 12.7994 15.2575 19.2532 14.9175 27.3577C14.8828 28.1857 15.4917 28.8442 16.2491 28.9561C16.4598 29.3748 16.8852 29.6668 17.3807 29.6877L19.3236 31.8507V37.0703H19.2248C18.2583 37.0703 17.4748 37.8538 17.4748 38.8203V40.5469H17.2987V38.8203C17.2987 37.8538 16.5152 37.0703 15.5487 37.0703H14.0818C13.1153 37.0703 12.3318 37.8538 12.3318 38.8203V40.5462H12.155V38.8195C12.155 37.853 11.3715 37.0695 10.405 37.0695H10.3062V31.8501L12.2497 29.6877C12.7447 29.6665 13.1696 29.3749 13.3804 28.9568C14.1469 28.8468 14.7099 28.1899 14.7376 27.4329C15.0381 19.2185 21.8445 12.639 30.2108 12.639C38.7691 12.639 45.6951 19.5241 45.6951 28.0008C45.6951 36.3774 38.9327 43.1984 30.5178 43.3597C28.8644 43.3865 27.4425 43.0471 26.4767 42.3625C25.5647 41.7161 24.9624 40.6976 25.0143 39.0696L25.0143 39.0691C25.0616 37.5648 25.7534 35.6228 27.3117 33.3201L27.3257 33.2995L27.3385 33.2782C28.3018 31.6852 29.1594 30.042 29.8608 28.2942C30.0131 27.9144 30.055 27.4881 29.9115 27.0818C29.767 26.6731 29.4608 26.366 29.0838 26.2121C28.3021 25.8929 27.4744 26.2753 27.0471 26.9837C26.2599 28.2888 25.4364 29.5652 24.5499 30.8405C24.2538 28.5736 24.6673 26.35 25.9489 24.3761ZM17.2437 29.5351L17.2443 29.5359L17.2437 29.5351ZM19.3734 31.9062C19.3733 31.9061 19.3732 31.906 19.3731 31.9059L19.3734 31.9061L19.518 31.7762L19.3734 31.9062ZM10.2564 31.9056L10.2566 31.9053C10.2565 31.9054 10.2565 31.9055 10.2564 31.9056L10.1118 31.7756L10.2564 31.9056Z" stroke="#0B0D21" stroke-width="1.94444"/>
</svg>
