<svg width="56" height="56" viewBox="0 0 56 56" fill="none" xmlns="http://www.w3.org/2000/svg">
<rect width="56" height="56" rx="28" fill="#F9F9F9"/>
<path d="M28.3342 26.9413H27.252C26.8756 26.9413 26.5463 26.8002 26.3111 26.5179C26.0758 26.2356 25.9347 25.8592 25.9817 25.5298C26.0288 24.8712 26.6404 24.3536 27.3461 24.3536H28.6165C29.0399 24.3536 29.3692 24.6359 29.4633 25.0594C29.5104 25.2475 29.6515 25.3416 29.8397 25.3416H31.2512C31.3453 25.3416 31.4864 25.2946 31.5335 25.2005C31.6276 25.1064 31.6276 25.0123 31.6276 24.9182C31.4864 23.4597 30.3102 22.3305 28.8517 22.1894V20.872C28.8517 20.6368 28.6635 20.4956 28.4753 20.4956H27.0638C26.8286 20.4956 26.6874 20.6838 26.6874 20.872V22.1894C24.8525 22.4717 23.5822 24.1184 23.7704 26.0003C23.9586 27.7882 25.5583 29.1526 27.3932 29.1526H28.3342C28.7106 29.1526 29.0399 29.2938 29.2751 29.576C29.5104 29.8583 29.6515 30.2347 29.6045 30.5641C29.5574 31.2228 28.9458 31.7403 28.2401 31.7403H26.9697C26.5463 31.7403 26.217 31.458 26.1229 31.0346C26.0758 30.8464 25.9347 30.7523 25.7465 30.7523H24.335C24.2409 30.7523 24.0998 30.7993 24.0527 30.8934C23.9586 30.9875 23.9586 31.0816 23.9586 31.1757C24.0998 32.6342 25.276 33.7634 26.7345 33.9046V35.2219C26.7345 35.4572 26.9227 35.5983 27.1109 35.5983H28.5224C28.7576 35.5983 28.8987 35.4101 28.8987 35.2219V33.8575C30.4984 33.5282 31.6746 32.3049 31.8158 30.7523C31.9099 29.7642 31.5805 28.7762 30.9219 28.0705C30.2632 27.3177 29.3222 26.9413 28.3342 26.9413Z" fill="#0B0D21" stroke="#F9F9F9" stroke-width="0.5"/>
<path d="M49.836 34.7987L46.2603 31.223C45.7898 30.7525 45.084 30.7525 44.6136 31.223C44.1431 31.6934 44.1431 32.3992 44.6136 32.8697L46.1662 34.4223H38.4031C39.5323 32.5403 40.191 30.329 40.191 27.9766C40.191 21.1074 34.6392 15.5557 27.77 15.5557C24.3355 15.5557 21.2302 16.9671 18.9719 19.2255H9.468L11.0206 17.6729C11.4911 17.2024 11.4911 16.4966 11.0206 16.0262C10.5501 15.5557 9.84439 15.5557 9.3739 16.0262L5.79818 19.6019C5.32769 20.0724 5.32769 20.7781 5.79818 21.2486L9.3739 24.8243C9.60914 25.0596 9.89144 25.1536 10.2208 25.1536C10.5501 25.1536 10.8324 25.0596 11.0677 24.8243C11.5381 24.3538 11.5381 23.6481 11.0677 23.1776L9.468 21.5779H17.2311C16.1019 23.4599 15.4432 25.6712 15.4432 28.0236C15.4432 34.8928 20.995 40.4446 27.8641 40.4446C31.2987 40.4446 34.4039 39.0331 36.6623 36.7747H46.1662L44.6136 38.3274C44.1431 38.7978 44.1431 39.5036 44.6136 39.9741C44.8488 40.2093 45.1311 40.3034 45.4604 40.3034C45.7898 40.3034 46.0721 40.2093 46.3073 39.9741L49.883 36.3983C50.2594 35.9749 50.2594 35.2221 49.836 34.7987ZM27.8171 38.0921C22.2653 38.0921 17.7486 33.5754 17.7486 28.0236C17.7486 22.4719 22.2653 17.9552 27.8171 17.9552C33.3689 17.9552 37.8856 22.4719 37.8856 28.0236C37.8856 33.5754 33.3689 38.0921 27.8171 38.0921Z" fill="#0B0D21" stroke="#F9F9F9" stroke-width="0.5"/>
</svg>
