<svg width="56" height="56" viewBox="0 0 56 56" fill="none" xmlns="http://www.w3.org/2000/svg">
<rect width="56" height="56" rx="28" fill="#F9F9F9"/>
<path d="M39.2154 20.9122C39.0109 20.9206 38.8095 20.8607 38.643 20.742C38.4766 20.6233 38.3546 20.4526 38.2965 20.2569C37.636 18.0967 36.2973 16.2052 34.4775 14.8611C32.6577 13.5171 30.4532 12.7916 28.1888 12.7916C25.9243 12.7916 23.7198 13.5171 21.9 14.8611C20.409 15.9624 19.2409 17.4311 18.5042 19.1141C18.413 19.3226 18.5297 19.5604 18.7479 19.6252L19.395 19.8172C19.6824 19.9025 19.7693 20.2672 19.5512 20.4729L16.539 23.3147C16.3214 23.5199 15.9633 23.413 15.8939 23.1222L14.9337 19.1015C14.8642 18.8104 15.1357 18.5532 15.4226 18.6383L16.2199 18.875C16.4163 18.9333 16.6236 18.8289 16.7003 18.639C17.5479 16.54 18.9598 14.7056 20.7902 13.3439C22.9328 11.75 25.5342 10.8889 28.2071 10.8889C30.8801 10.8889 33.4815 11.75 35.624 13.3439C37.7666 14.9378 39.3356 17.1793 40.0975 19.7345C40.132 19.8501 40.1434 19.9713 40.1309 20.0912C40.1185 20.2111 40.0824 20.3274 40.0248 20.4334C39.9671 20.5394 39.8891 20.633 39.7952 20.7089C39.7012 20.7847 39.5932 20.8414 39.4772 20.8755C39.3924 20.9011 39.304 20.9135 39.2154 20.9122Z" fill="#0B0D21"/>
<path fill-rule="evenodd" clip-rule="evenodd" d="M25.4089 28.8669C25.8521 29.3089 26.3901 29.6347 26.9752 29.8245C27.1462 29.88 27.2701 30.0344 27.2701 30.2141V31.0847C27.2701 31.3278 27.3669 31.5609 27.5393 31.7327C27.7116 31.9046 27.9453 32.0012 28.189 32.0012C28.4327 32.0012 28.6664 31.9046 28.8388 31.7327C29.0111 31.5609 29.1079 31.3278 29.1079 31.0847V30.2156C29.1079 30.0357 29.232 29.8812 29.4033 29.8259C29.9914 29.6359 30.5322 29.309 30.9775 28.8649C31.7172 28.1271 32.1328 27.1266 32.1328 26.0832C32.1328 25.0399 31.7172 24.0393 30.9775 23.3016C30.5322 22.8575 29.9914 22.5305 29.4033 22.3406C29.232 22.2853 29.1079 22.1308 29.1079 21.9509V18.8043C29.1079 18.517 29.4086 18.3372 29.6188 18.5331C29.7349 18.6413 29.8388 18.7628 29.9282 18.8957C30.159 19.2387 30.2826 19.6422 30.2835 20.0553C30.2835 20.2984 30.3804 20.5315 30.5527 20.7033C30.725 20.8752 30.9587 20.9718 31.2024 20.9718C31.4461 20.9718 31.6799 20.8752 31.8522 20.7033C32.0245 20.5315 32.1213 20.2984 32.1213 20.0553C32.1213 19.2784 31.8903 18.519 31.4574 17.8731C31.0246 17.2272 30.4094 16.7239 29.6896 16.4268C29.5951 16.3878 29.4994 16.3526 29.4027 16.3212C29.2317 16.2657 29.1079 16.1113 29.1079 15.9316V15.0469C29.1079 14.8038 29.0111 14.5707 28.8388 14.3989C28.6664 14.227 28.4327 14.1305 28.189 14.1305C27.9453 14.1305 27.7116 14.227 27.5393 14.3989C27.3669 14.5707 27.2701 14.8038 27.2701 15.0469V15.9283C27.2701 16.1084 27.1457 16.263 26.9743 16.3182C26.3819 16.509 25.8411 16.8378 25.3981 17.2801C24.8476 17.8298 24.473 18.5299 24.3216 19.292C24.1702 20.0541 24.2488 20.8438 24.5475 21.5613C24.8462 22.2788 25.3516 22.8917 25.9997 23.3227C26.303 23.5244 26.6312 23.6819 26.9743 23.7924C27.1458 23.8476 27.2701 24.0022 27.2701 24.1823V27.3283C27.2701 27.6156 26.9696 27.7954 26.7593 27.5997C26.6466 27.4949 26.5453 27.3775 26.4576 27.2492C26.2247 26.9087 26.098 26.5069 26.0934 26.0947C26.0934 25.8516 25.9966 25.6185 25.8243 25.4467C25.652 25.2748 25.4183 25.1782 25.1746 25.1782C24.9308 25.1782 24.6971 25.2748 24.5248 25.4467C24.3525 25.6185 24.2557 25.8516 24.2557 26.0947C24.2569 27.1346 24.6716 28.1316 25.4089 28.8669ZM29.6778 27.5412C29.6585 27.5607 29.6388 27.5798 29.6188 27.5984C29.4086 27.7944 29.1079 27.6146 29.1079 27.3272V24.4735C29.1079 24.3445 29.2426 24.2615 29.35 24.3329C29.694 24.5615 29.9626 24.8865 30.1218 25.267C30.281 25.6474 30.3238 26.0664 30.2448 26.4711C30.1658 26.8758 29.9686 27.2481 29.6778 27.5412ZM27.025 21.7976C27.1337 21.87 27.2701 21.7859 27.2701 21.6553V18.8035C27.2701 18.5162 26.9696 18.3364 26.7593 18.5321C26.7411 18.549 26.7231 18.5664 26.7054 18.584C26.4129 18.8764 26.2138 19.2487 26.1334 19.6539C26.0529 20.0591 26.0947 20.479 26.2534 20.8606C26.4121 21.2421 26.6806 21.5682 27.025 21.7976Z" fill="#0B0D21"/>
<path d="M23.5934 38.3704H32.7822C33.0259 38.3704 33.2596 38.2739 33.432 38.102C33.6043 37.9301 33.7011 37.6971 33.7011 37.454V37.257C33.7117 36.0856 33.9677 34.9293 34.4527 33.8625C34.9377 32.7956 35.641 31.8416 36.5175 31.0618C36.5587 31.0249 36.5964 30.9846 36.6302 30.9412C36.6461 30.9209 36.6629 30.9013 36.6817 30.8836C37.77 29.8598 38.663 28.6511 39.3206 27.3165C39.4108 27.1333 39.6243 27.0446 39.8156 27.1163L40.5916 27.4072C40.8718 27.5122 41.1607 27.2747 41.1118 26.9795L40.4357 22.8994C40.3869 22.6044 40.0372 22.4727 39.8058 22.662L36.5989 25.2864C36.3669 25.4763 36.428 25.8463 36.7087 25.9515L37.3603 26.1958C37.5728 26.2754 37.6728 26.5196 37.5685 26.7212C37.0162 27.7893 36.2854 28.759 35.4052 29.5874C35.39 29.6016 35.3736 29.6145 35.3567 29.6267C35.3307 29.6455 35.3056 29.6656 35.2816 29.6871C33.4048 31.367 32.2137 33.6716 31.9259 36.1619C31.9026 36.3633 31.7347 36.5192 31.532 36.5192H24.8436C24.6409 36.5192 24.473 36.3633 24.4497 36.1619C24.1651 33.6993 22.9971 31.4182 21.1563 29.7433C21.1436 29.7304 21.1305 29.7178 21.117 29.7055C19.684 28.4133 18.6337 26.7539 18.0801 24.9079C18.01 24.6722 17.8489 24.4738 17.6322 24.3565C17.4155 24.2392 17.161 24.2126 16.9246 24.2825C16.6882 24.3523 16.4893 24.513 16.3717 24.7291C16.2541 24.9453 16.2274 25.1991 16.2975 25.4349C16.9418 27.5717 18.1515 29.4952 19.7987 31.0036C19.8176 31.0239 19.8374 31.0433 19.8581 31.0618C20.7346 31.8416 21.4379 32.7956 21.9229 33.8625C22.4079 34.9293 22.6639 36.0856 22.6745 37.257V37.454C22.6745 37.6971 22.7713 37.9301 22.9436 38.102C23.1159 38.2739 23.3497 38.3704 23.5934 38.3704Z" fill="#0B0D21"/>
<path d="M23.5935 41.2344H32.7823C33.026 41.2344 33.2597 41.1378 33.4321 40.9659C33.6044 40.7941 33.7012 40.561 33.7012 40.3179C33.7012 40.0749 33.6044 39.8417 33.4321 39.6699C33.2597 39.498 33.026 39.4015 32.7823 39.4015H23.5935C23.3498 39.4015 23.1161 39.498 22.9437 39.6699C22.7714 39.8417 22.6746 40.0749 22.6746 40.3179C22.6746 40.561 22.7714 40.7941 22.9437 40.9659C23.1161 41.1378 23.3498 41.2344 23.5935 41.2344Z" fill="#0B0D21"/>
<path d="M32.2082 44.222H24.1679C23.9242 44.222 23.6905 44.1254 23.5182 43.9536C23.3458 43.7817 23.249 43.5486 23.249 43.3055C23.249 43.0625 23.3458 42.8294 23.5182 42.6575C23.6905 42.4856 23.9242 42.3891 24.1679 42.3891H32.2082C32.4519 42.3891 32.6856 42.4856 32.8579 42.6575C33.0302 42.8294 33.127 43.0625 33.127 43.3055C33.127 43.5486 33.0302 43.7817 32.8579 43.9536C32.6856 44.1254 32.4519 44.222 32.2082 44.222Z" fill="#0B0D21"/>
<path d="M26.5971 47.7854C27.0806 48.0667 27.6293 48.2173 28.189 48.2222C28.7534 48.2221 29.3078 48.0738 29.7965 47.7923C30.2852 47.5107 30.691 47.1059 30.9732 46.6185C31.0451 46.5144 31.0947 46.3966 31.1188 46.2726C31.1429 46.1485 31.141 46.0208 31.1132 45.8975C31.0854 45.7742 31.0324 45.6579 30.9574 45.5561C30.8824 45.4542 30.7871 45.3689 30.6775 45.3055C30.5679 45.2421 30.4463 45.202 30.3204 45.1878C30.1945 45.1735 30.067 45.1854 29.9459 45.2226C29.8248 45.2598 29.7127 45.3216 29.6168 45.4042C29.5208 45.4867 29.4429 45.5881 29.3881 45.702C29.2661 45.9072 29.0926 46.0771 28.8848 46.1951C28.677 46.3131 28.4419 46.3752 28.2028 46.3752C27.9636 46.3752 27.7286 46.3131 27.5207 46.1951C27.3129 46.0771 27.1395 45.9072 27.0174 45.702C26.9626 45.5881 26.8848 45.4867 26.7888 45.4042C26.6928 45.3216 26.5808 45.2598 26.4597 45.2226C26.3386 45.1854 26.2111 45.1735 26.0852 45.1878C25.9593 45.202 25.8377 45.2421 25.7281 45.3055C25.6184 45.3689 25.5231 45.4542 25.4482 45.5561C25.3732 45.6579 25.3201 45.7742 25.2924 45.8975C25.2646 46.0208 25.2627 46.1485 25.2868 46.2726C25.3109 46.3966 25.3604 46.5144 25.4323 46.6185C25.7122 47.1019 26.1137 47.5042 26.5971 47.7854Z" fill="#0B0D21"/>
</svg>
