<svg width="56" height="56" viewBox="0 0 56 56" fill="none" xmlns="http://www.w3.org/2000/svg">
<rect width="56" height="56" rx="28" fill="#F9F9F9"/>
<path d="M23.2422 15.1261C23.2422 17.5581 25.1836 20.2816 27.7838 20.2816C30.3841 20.2816 32.3255 17.5581 32.3255 15.1261C32.3255 12.6942 30.3753 10.8887 27.7838 10.8887C25.1924 10.8887 23.2422 12.7072 23.2422 15.1261ZM27.7838 12.1938C29.6506 12.1938 31.0078 13.4251 31.0078 15.1261C31.0078 16.8272 29.5715 18.9764 27.7838 18.9764C25.9962 18.9764 24.5599 16.8664 24.5599 15.1261C24.5599 13.3859 25.9347 12.1938 27.8014 12.1938H27.7838Z" fill="#0B0D21" stroke="#0B0D21" stroke-width="0.388889"/>
<path d="M35.2332 26.4766C35.2311 26.5026 35.2311 26.5288 35.2332 26.5549L36.0414 33.1982C36.0607 33.3559 36.1373 33.5012 36.257 33.6069C36.3767 33.7127 36.5311 33.7715 36.6915 33.7725H36.775C36.9477 33.7518 37.1052 33.6642 37.213 33.5289C37.3208 33.3936 37.3702 33.2215 37.3503 33.0503L36.5509 26.4374C36.5866 25.0456 36.109 23.6887 35.2076 22.6205C34.3062 21.5522 33.0427 20.8459 31.6535 20.6337C30.3952 20.468 29.1279 20.3779 27.8585 20.364C26.5532 20.3865 25.2499 20.4751 23.9538 20.6294C21.1207 21.0123 19.0607 23.4529 19.0475 26.4418L18.3008 33.0503C18.2913 33.136 18.2989 33.2227 18.3233 33.3055C18.3476 33.3883 18.3881 33.4655 18.4426 33.5328C18.497 33.6 18.5643 33.656 18.6406 33.6975C18.7169 33.739 18.8007 33.7652 18.8872 33.7747C18.9737 33.7841 19.0613 33.7766 19.1449 33.7525C19.2284 33.7284 19.3064 33.6882 19.3743 33.6343C19.4422 33.5804 19.4988 33.5137 19.5407 33.4381C19.5826 33.3626 19.609 33.2796 19.6185 33.1939L20.3521 26.5462C20.3521 26.5462 20.3521 26.5027 20.3521 26.4766C20.3521 24.0968 21.8982 22.2217 24.1207 21.9259C25.3569 21.7766 26.6002 21.6909 27.8454 21.6692C29.0483 21.6858 30.2494 21.77 31.4427 21.9215C32.5273 22.0909 33.5117 22.6478 34.2101 23.487C34.9084 24.3263 35.2724 25.3897 35.2332 26.4766Z" fill="#0B0D21" stroke="#0B0D21" stroke-width="0.388889"/>
<path d="M32.0263 38.4708L35.1975 35.4254C35.2858 35.3402 35.3482 35.2321 35.3776 35.1135C35.407 34.995 35.4022 34.8706 35.3637 34.7545C35.3253 34.6385 35.2548 34.5355 35.1602 34.4572C35.0655 34.3789 34.9507 34.3285 34.8286 34.3116L30.4362 33.6808L28.4773 29.7653C28.4228 29.6561 28.3387 29.5642 28.2343 29.4999C28.1299 29.4357 28.0094 29.4016 27.8865 29.4016C27.7636 29.4016 27.6431 29.4357 27.5387 29.4999C27.4343 29.5642 27.3501 29.6561 27.2957 29.7653L25.3367 33.6808L20.9444 34.3116C20.8275 34.3347 20.7191 34.3887 20.6307 34.468C20.5423 34.5472 20.4773 34.6487 20.4426 34.7617C20.4079 34.8747 20.4048 34.9948 20.4336 35.1094C20.4624 35.224 20.5221 35.3287 20.6062 35.4123L23.7731 38.4578L23.0264 42.7779C23.0055 42.8981 23.0191 43.0216 23.0655 43.1346C23.1119 43.2475 23.1894 43.3453 23.2891 43.4169C23.3887 43.4885 23.5067 43.5309 23.6295 43.5395C23.7523 43.548 23.8751 43.5223 23.9839 43.4653L27.8975 41.4249L31.8154 43.4653C31.91 43.5151 32.0157 43.5406 32.1229 43.5392C32.2615 43.5402 32.3968 43.4975 32.5094 43.4174C32.6082 43.3449 32.685 43.2469 32.7315 43.1342C32.778 43.0214 32.7923 42.8982 32.7729 42.7779L32.0263 38.4708ZM30.669 38.3533L31.2488 41.7076L28.2093 40.124C28.1142 40.0756 28.0088 40.0503 27.9019 40.0503C27.7949 40.0503 27.6895 40.0756 27.5944 40.124L24.5549 41.7076L25.1347 38.3533C25.153 38.249 25.1454 38.1417 25.1125 38.0409C25.0796 37.9401 25.0224 37.8487 24.9458 37.7747L22.4861 35.3993L25.877 34.912C25.9827 34.8969 26.0832 34.8565 26.1696 34.7943C26.2561 34.7322 26.326 34.6502 26.3733 34.5553L27.8931 31.5099L29.4172 34.5553C29.4638 34.6498 29.533 34.7317 29.6187 34.7939C29.7044 34.856 29.8041 34.8966 29.9092 34.912L33.3132 35.3993L30.8491 37.7747C30.7708 37.8479 30.7116 37.9387 30.6764 38.0395C30.6412 38.1402 30.6312 38.2479 30.6471 38.3533H30.669Z" fill="#0B0D21" stroke="#0B0D21" stroke-width="0.388889"/>
<path d="M45.9813 36.2828L42.7793 35.8086L41.3474 32.9372C41.293 32.828 41.2088 32.7361 41.1044 32.6718C41 32.6075 40.8795 32.5735 40.7566 32.5735C40.6337 32.5735 40.5132 32.6075 40.4088 32.6718C40.3044 32.7361 40.2203 32.828 40.1659 32.9372L38.734 35.8086L35.5407 36.2828C35.419 36.3003 35.3046 36.3512 35.2106 36.4298C35.1166 36.5083 35.0466 36.6114 35.0087 36.7273C34.9707 36.8432 34.9663 36.9673 34.9959 37.0856C35.0255 37.2039 35.088 37.3116 35.1762 37.3965L37.4909 39.6327L36.9463 42.7912C36.9295 42.885 36.9338 42.9812 36.9588 43.0731C36.9838 43.165 37.0289 43.2503 37.091 43.323C37.153 43.3956 37.2305 43.4539 37.3178 43.4936C37.4052 43.5333 37.5003 43.5534 37.5963 43.5526C37.7035 43.5539 37.8092 43.5285 37.9038 43.4786L40.7632 41.9864L43.627 43.4786C43.7358 43.5357 43.8586 43.5614 43.9814 43.5528C44.1042 43.5443 44.2222 43.5018 44.3219 43.4302C44.4215 43.3587 44.499 43.2609 44.5454 43.1479C44.5918 43.035 44.6054 42.9114 44.5845 42.7912L44.0399 39.6327L46.3546 37.3965C46.4428 37.3116 46.5053 37.2039 46.5349 37.0856C46.5645 36.9673 46.5601 36.8432 46.5221 36.7273C46.4842 36.6114 46.4142 36.5083 46.3202 36.4298C46.2262 36.3512 46.1118 36.3003 45.9901 36.2828H45.9813ZM42.8627 38.9366C42.7852 39.01 42.7274 39.1013 42.6944 39.2023C42.6615 39.3033 42.6544 39.4108 42.6739 39.5152L43.0516 41.6905L41.0619 40.6551C40.9666 40.6072 40.8613 40.5819 40.7544 40.5811C40.6489 40.5814 40.5449 40.6068 40.4514 40.6551L38.4616 41.6905L38.8394 39.5152C38.8589 39.4108 38.8518 39.3033 38.8188 39.2023C38.7858 39.1013 38.728 39.01 38.6505 38.9366L37.0429 37.3835L39.2654 37.0659C39.3708 37.0497 39.4708 37.0089 39.5571 36.9468C39.6434 36.8848 39.7135 36.8033 39.7618 36.7091L40.7544 34.7122L41.7515 36.7091C41.7997 36.8033 41.8699 36.8848 41.9562 36.9468C42.0425 37.0089 42.1424 37.0497 42.2478 37.0659L44.4703 37.3835L42.8627 38.9366Z" fill="#0B0D21" stroke="#0B0D21" stroke-width="0.388889"/>
<path d="M20.3368 36.2828L17.1348 35.8086L15.7029 32.9372C15.6484 32.828 15.5643 32.7361 15.4599 32.6718C15.3555 32.6075 15.235 32.5735 15.1121 32.5735C14.9892 32.5735 14.8687 32.6075 14.7643 32.6718C14.6599 32.7361 14.5757 32.828 14.5213 32.9372L13.0894 35.8086L9.89621 36.2828C9.77446 36.3003 9.6601 36.3512 9.56607 36.4298C9.47204 36.5083 9.40209 36.6114 9.36415 36.7273C9.32621 36.8432 9.32179 36.9673 9.35139 37.0856C9.38099 37.2039 9.44343 37.3116 9.53164 37.3965L11.8464 39.6327L11.3017 42.7912C11.285 42.885 11.2892 42.9812 11.3143 43.0731C11.3393 43.165 11.3844 43.2503 11.4465 43.323C11.5085 43.3956 11.5859 43.4539 11.6733 43.4936C11.7606 43.5333 11.8557 43.5534 11.9518 43.5526C12.059 43.5539 12.1647 43.5285 12.2593 43.4786L15.1187 41.9864L17.9825 43.4786C18.0913 43.5357 18.2141 43.5614 18.3369 43.5528C18.4597 43.5443 18.5776 43.5018 18.6773 43.4302C18.777 43.3587 18.8545 43.2609 18.9009 43.1479C18.9473 43.035 18.9609 42.9114 18.94 42.7912L18.3953 39.6327L20.7101 37.3965C20.7983 37.3116 20.8608 37.2039 20.8904 37.0856C20.92 36.9673 20.9155 36.8432 20.8776 36.7273C20.8397 36.6114 20.7697 36.5083 20.6757 36.4298C20.5816 36.3512 20.4673 36.3003 20.3455 36.2828H20.3368ZM17.2182 38.9366C17.1407 39.01 17.0829 39.1013 17.0499 39.2023C17.0169 39.3033 17.0099 39.4108 17.0293 39.5152L17.4071 41.6905L15.4174 40.6551C15.322 40.6072 15.2168 40.5819 15.1099 40.5811C15.0043 40.5814 14.9004 40.6068 14.8068 40.6551L12.8171 41.6905L13.1948 39.5152C13.2143 39.4108 13.2073 39.3033 13.1743 39.2023C13.1413 39.1013 13.0835 39.01 13.006 38.9366L11.3984 37.3835L13.6209 37.0659C13.7263 37.0497 13.8262 37.0089 13.9125 36.9468C13.9988 36.8848 14.069 36.8033 14.1172 36.7091L15.1099 34.7122L16.1069 36.7091C16.1552 36.8033 16.2253 36.8848 16.3116 36.9468C16.3979 37.0089 16.4979 37.0497 16.6033 37.0659L18.8258 37.3835L17.2182 38.9366Z" fill="#0B0D21" stroke="#0B0D21" stroke-width="0.388889"/>
</svg>
