<svg width="56" height="56" viewBox="0 0 56 56" fill="none" xmlns="http://www.w3.org/2000/svg">
<rect width="56" height="56" rx="28" fill="#F9F9F9"/>
<path d="M46.4156 21.0779H41.599C41.2661 21.0779 40.9962 20.808 40.9962 20.4751C40.9962 19.4781 40.1857 18.6667 39.1897 18.6667C38.9758 18.6667 38.7714 18.7053 38.5818 18.775C38.2076 18.9127 37.7635 18.9125 37.3893 18.7749C37.1996 18.7052 36.9951 18.6667 36.7811 18.6667C36.5672 18.6667 36.3628 18.7053 36.1732 18.775C35.799 18.9127 35.3549 18.9125 34.9807 18.7749C34.791 18.7052 34.5865 18.6667 34.3725 18.6667C34.1586 18.6667 33.9542 18.7053 33.7646 18.775C33.3904 18.9127 32.9463 18.9125 32.5721 18.7749C32.3824 18.7052 32.1779 18.6667 31.9639 18.6667C30.968 18.6667 30.1575 19.4781 30.1575 20.4751C30.1575 20.808 29.8876 21.0779 29.5547 21.0779H11.4908C11.1584 21.0779 10.8887 21.3479 10.8887 21.6806V24.0917C10.8887 24.4245 11.1584 24.6945 11.4908 24.6945C11.8234 24.6945 12.093 24.9641 12.093 25.2967V38.5584C12.093 38.8911 12.3627 39.1612 12.6951 39.1612H14.9281C15.3577 39.1612 15.7059 39.5094 15.7059 39.939V42.1751C15.7059 42.5078 15.9756 42.7779 16.308 42.7779H27.1467C27.4791 42.7779 27.7489 42.5078 27.7489 42.1751V27.7084C27.7489 27.3757 27.4791 27.1056 27.1467 27.1056H24.9138C24.4842 27.1056 24.136 26.7574 24.136 26.3279V25.4723C24.136 25.0427 24.4842 24.6945 24.9138 24.6945H29.5547C29.8876 24.6945 30.1575 24.9644 30.1575 25.2973V28.0014C30.1575 28.7181 30.3676 29.4119 30.7645 30.0074L30.9571 30.2967C31.2221 30.6946 31.3618 31.1569 31.3618 31.6349V34.3396C31.3618 34.6722 31.0922 34.9417 30.7596 34.9417C30.4271 34.9417 30.1575 35.2117 30.1575 35.5442C30.1575 35.8771 30.4274 36.1473 30.7603 36.1473H39.1891C39.522 36.1473 39.7919 35.8771 39.7919 35.5442C39.7919 35.2117 39.5223 34.9417 39.1897 34.9417C38.8572 34.9417 38.5876 34.6722 38.5876 34.3396V31.3251C38.5876 30.993 38.858 30.7223 39.1897 30.7223C40.1857 30.7223 40.9962 29.911 40.9962 28.914V26.5029V25.4723C40.9962 25.0427 41.3444 24.6945 41.774 24.6945H46.4156C47.4115 24.6945 48.222 23.8832 48.222 22.8862C48.222 21.8892 47.4115 21.0779 46.4156 21.0779ZM39.1897 19.8723C39.5215 19.8723 39.7919 20.143 39.7919 20.4751V24.1901C39.7919 24.49 39.4896 24.6945 39.1897 24.6945C38.8572 24.6945 38.5876 24.4249 38.5876 24.0924V20.4751C38.5876 20.143 38.858 19.8723 39.1897 19.8723ZM36.7811 19.8723C37.1129 19.8723 37.3833 20.143 37.3833 20.4751V24.0924C37.3833 24.4249 37.1137 24.6945 36.7811 24.6945C36.4486 24.6945 36.179 24.4249 36.179 24.0924V20.4751C36.179 20.143 36.4494 19.8723 36.7811 19.8723ZM34.3725 19.8723C34.7043 19.8723 34.9747 20.143 34.9747 20.4751V24.3309C34.9747 24.6155 34.7877 24.8595 34.5537 25.0214C34.4277 25.1086 34.3135 25.2113 34.2137 25.327C34.06 25.5051 33.7704 25.5325 33.7704 25.2973V20.4751C33.7704 20.143 34.0408 19.8723 34.3725 19.8723ZM25.7668 28.3112C26.1964 28.3112 26.5446 28.6594 26.5446 29.089V40.7945C26.5446 41.2241 26.1964 41.5723 25.7668 41.5723H17.688C17.2584 41.5723 16.9102 41.2241 16.9102 40.7945V39.939C16.9102 39.5094 17.2584 39.1612 17.688 39.1612H23.5338C23.8662 39.1612 24.136 38.8911 24.136 38.5584V29.089C24.136 28.6594 24.4842 28.3112 24.9138 28.3112H25.7668ZM22.9317 37.1779C22.9317 37.6074 22.5835 37.9556 22.1539 37.9556H14.0751C13.6455 37.9556 13.2973 37.6074 13.2973 37.1779V25.4723C13.2973 25.0427 13.6455 24.6945 14.0751 24.6945H22.1539C22.5835 24.6945 22.9317 25.0427 22.9317 25.4723V37.1779ZM23.5338 23.489H12.6951C12.3626 23.489 12.093 23.2191 12.093 22.8865C12.093 22.5536 12.3628 22.2834 12.6958 22.2834H29.5547C29.8876 22.2834 30.1575 22.5533 30.1575 22.8862C30.1575 23.2191 29.8876 23.489 29.5547 23.489H23.5338ZM31.3618 20.4751C31.3618 20.143 31.6322 19.8723 31.9639 19.8723C32.2957 19.8723 32.5661 20.143 32.5661 20.4751V25.2973C32.5661 25.6294 32.2957 25.9001 31.9639 25.9001C31.6322 25.9001 31.3618 25.6294 31.3618 25.2973V20.4751ZM33.3439 34.9417C32.9143 34.9417 32.5661 34.5935 32.5661 34.164V33.3084C32.5661 32.8789 32.9143 32.5306 33.3439 32.5306H36.6055C37.0351 32.5306 37.3833 32.8789 37.3833 33.3084V34.164C37.3833 34.5935 37.0351 34.9417 36.6055 34.9417H33.3439ZM39.1897 29.5167C38.4625 29.5167 37.8341 29.9494 37.548 30.571C37.3684 30.9612 37.0351 31.3251 36.6055 31.3251H33.2573C32.8534 31.3251 32.5258 31.0121 32.4159 30.6236C32.3165 30.2725 32.1646 29.9372 31.9591 29.6289L31.7664 29.3395C31.5015 28.9417 31.3618 28.4794 31.3618 28.0014V27.6096C31.3618 27.31 31.6644 27.1056 31.9639 27.1056C32.2499 27.1056 32.519 27.0368 32.7584 26.9164C33.0114 26.7892 33.3234 26.7876 33.5777 26.9122C33.7437 26.9935 33.882 27.1304 33.9633 27.2965C34.2563 27.8956 34.866 28.3112 35.5768 28.3112H39.1897C39.4896 28.3112 39.7919 28.5157 39.7919 28.8156V28.914C39.7919 29.2461 39.5215 29.5167 39.1897 29.5167ZM39.1897 27.1056H35.5768C35.2451 27.1056 34.9747 26.835 34.9747 26.5029C34.9747 26.1707 35.2451 25.9001 35.5768 25.9001H39.1897C39.5215 25.9001 39.7919 26.1707 39.7919 26.5029C39.7919 26.835 39.5215 27.1056 39.1897 27.1056ZM46.4156 23.489H41.599C41.2661 23.489 40.9962 23.2191 40.9962 22.8862C40.9962 22.5533 41.2661 22.2834 41.599 22.2834H46.4156C46.7473 22.2834 47.0177 22.5541 47.0177 22.8862C47.0177 23.2183 46.7473 23.489 46.4156 23.489Z" fill="#0B0D21" stroke="#0B0D21" stroke-width="0.388889"/>
</svg>
