<svg width="86" height="24" viewBox="0 0 86 24" fill="none" xmlns="http://www.w3.org/2000/svg">
<path d="M16.3203 0.202433V9.80947L19.6862 9.42168V0.202433H16.3203ZM16.3203 23.8005H19.6862V14.5766L16.3203 14.1897V23.8005ZM29.1741 7.60977C29.138 7.21865 29.1215 6.82595 29.1247 6.43316C29.1241 6.04983 29.1576 5.6672 29.2248 5.28985C29.2812 4.9508 29.3989 4.62497 29.572 4.32841C29.7416 4.04679 29.9801 3.81335 30.2648 3.65025C30.5619 3.47352 30.9416 3.38515 31.4039 3.38515C32.2616 3.38515 32.8721 3.667 33.2356 4.23069C33.599 4.79438 33.7806 5.46288 33.7804 6.23619V6.99758H37.1445V5.3401C37.1451 4.67338 37.0103 4.01354 36.7485 3.40087C36.4809 2.76459 36.0943 2.18573 35.6096 1.69561C35.1003 1.17562 34.4958 0.759257 33.8292 0.46938C33.1063 0.152262 32.3241 -0.00541351 31.5353 0.00699975C30.568 0.00535573 29.7204 0.175614 28.9927 0.517776C28.2976 0.834389 27.6829 1.30481 27.1945 1.89382C26.7027 2.49907 26.3373 3.19759 26.1201 3.94771C25.8743 4.7638 25.752 5.61233 25.7573 6.46491C25.7505 7.21487 25.8279 7.96321 25.9881 8.69574L29.3574 8.30827C29.2573 8.08707 29.195 7.85051 29.1732 7.60853L29.1741 7.60977ZM33.7786 17.1055C33.7786 17.6355 33.7566 18.1213 33.7126 18.5629C33.6849 18.9506 33.578 19.3283 33.3986 19.6727C33.2337 19.9741 32.9803 20.2173 32.6729 20.369C32.353 20.5353 31.9074 20.6181 31.3361 20.6175C30.4784 20.6175 29.868 20.369 29.5047 19.8721C29.1461 19.3887 28.9548 18.8008 28.9599 18.198V17.1391H25.5952V18.3977C25.5823 19.5105 25.907 20.6009 26.526 21.5239C27.1451 22.4469 28.0292 23.1589 29.0609 23.5653C29.7844 23.858 30.5582 24.0047 31.3382 23.9968C32.4157 23.9968 33.3287 23.8201 34.0773 23.4666C34.7887 23.1469 35.4076 22.651 35.8758 22.0252C36.326 21.4209 36.6501 20.6925 36.8482 19.84C37.0528 18.932 37.1524 18.0032 37.1451 17.0722C37.1451 16.9045 37.1451 16.7412 37.1386 16.584L33.758 16.1952C33.7712 16.4668 33.7786 16.7683 33.7786 17.1055ZM43.0523 23.8005H46.4188V17.6508L43.0523 17.2637V23.8005ZM43.0523 0.202433V6.73464L46.4188 6.34839V0.202433H43.0523ZM56.8313 3.96405C56.9427 3.87155 57.0619 3.78903 57.1877 3.71745C57.5666 3.49986 57.9956 3.38542 58.4321 3.38546C59.0167 3.38555 59.5829 3.59063 60.0329 3.96528C60.2675 4.16851 60.4444 4.43045 60.5456 4.72451L63.9305 4.33581C63.6968 3.22075 63.1183 2.20834 62.2775 1.44315C61.7458 0.971686 61.1296 0.606167 60.4618 0.366115C59.152 -0.120085 57.7122 -0.120085 56.4025 0.366115C55.7346 0.606126 55.1184 0.971649 54.5868 1.44315C54.027 1.94346 53.5822 2.5599 53.2831 3.24983C52.9712 3.93826 52.8075 4.72616 52.792 5.61352L56.194 5.22203C56.2759 4.67704 56.4883 4.25751 56.8313 3.96344V3.96405ZM60.0323 20.0382C59.9208 20.1311 59.8014 20.2141 59.6756 20.2864C59.4237 20.4309 59.1488 20.5305 58.8631 20.5808C58.5773 20.6309 58.2851 20.6309 57.9993 20.5808C57.7136 20.5305 57.4387 20.4309 57.1868 20.2864C57.061 20.2142 56.9418 20.1312 56.8304 20.0382C56.486 19.7433 56.2734 19.3221 56.1928 18.7744L52.7907 18.3835C52.8069 19.2921 52.9706 20.0871 53.2819 20.7685C53.5845 21.4509 54.0288 22.0605 54.5852 22.5564C55.1166 23.0291 55.7331 23.3953 56.4015 23.6353C57.7113 24.1216 59.1511 24.1216 60.4608 23.6353C61.1288 23.3955 61.745 23.03 62.2765 22.5582C62.8328 22.0623 63.2772 21.4527 63.5799 20.7703C63.7404 20.4174 63.86 20.0471 63.9366 19.6668L60.5468 19.2769C60.4461 19.5725 60.2687 19.8359 60.0329 20.0398L60.0323 20.0382ZM78.7955 23.8005H81.9643V21.7383L77.8764 21.2679L78.7955 23.8005ZM70.2143 23.8005H73.5811V20.7744L70.2143 20.3869V23.8005ZM78.5969 0.202433V2.64781L81.9643 2.26095V0.202433H78.5969ZM70.2143 0.202433V3.61233L74.4916 3.12005L73.4485 0.202433H70.2143Z" fill="#DBDFE1"/>
<path d="M16.3203 9.80926V14.1895L19.6871 14.577V9.42147L16.3203 9.80926ZM36.5007 12.979C36.2451 12.4543 35.8797 11.9911 35.4294 11.6212C34.9684 11.2346 34.3641 10.8976 33.6165 10.6101L31.0435 9.58176C30.6784 9.44466 30.3296 9.26692 30.0039 9.05188C29.7673 8.89412 29.5696 8.68434 29.4258 8.43845C29.4028 8.39715 29.3829 8.35368 29.3598 8.30991L25.9906 8.69677C26.101 9.20414 26.2728 9.69606 26.502 10.1616C26.997 11.1453 27.9705 11.9353 29.4225 12.5314L31.8318 13.5253C32.1786 13.667 32.515 13.8329 32.8387 14.0218C33.0829 14.1676 33.2866 14.3727 33.4311 14.6183C33.5744 14.8614 33.6679 15.1818 33.7117 15.5795C33.7313 15.7604 33.7457 15.9669 33.7571 16.1935L37.138 16.5841C37.1288 15.9773 37.087 15.3716 37.0128 14.7694C36.9401 14.1495 36.7674 13.5456 36.5014 12.9815L36.5007 12.979ZM43.0532 6.73504V17.2634L46.4197 17.6506V6.34757L43.0532 6.73504ZM64.0766 5.77052C64.0791 5.28798 64.0304 4.80654 63.9314 4.33436L60.5465 4.724C60.6621 5.0604 60.7175 5.41471 60.7101 5.77052V18.2323C60.7173 18.5868 60.6623 18.9398 60.5477 19.2751L63.9375 19.6666C64.0325 19.1952 64.0791 18.7153 64.0766 18.2344V5.77052ZM56.1554 18.2323V5.7699C56.1547 5.58698 56.168 5.40427 56.195 5.22337L52.7929 5.61547V18.3833L56.195 18.7742C56.1686 18.5948 56.1556 18.4136 56.156 18.2323H56.1554ZM78.5984 2.64822V14.4207H78.5318L74.4925 3.11984L70.2152 3.61151V20.3867L73.582 20.7741V9.61506H73.648L77.8774 21.2683L81.9652 21.7381V2.26074L78.5984 2.64822Z" fill="#DBDFE1"/>
<path d="M9.3357 1.64077C8.84805 1.14035 8.27147 0.73595 7.63573 0.448441C6.97861 0.146115 6.26317 -0.00692164 5.5404 0.000240259C4.88273 0.00256756 4.22822 0.0915916 3.59363 0.26503C2.9423 0.437176 2.33557 0.748282 1.81477 1.17715C1.2872 1.60871 0.852747 2.17774 0.511403 2.88426C0.170059 3.59078 -0.00040855 4.48564 7.35243e-07 5.56884V18.431C7.35243e-07 19.5142 0.170468 20.4091 0.511403 21.1156C0.852338 21.8221 1.28679 22.391 1.81477 22.8221C2.33572 23.2515 2.94311 23.5625 3.59516 23.7336C4.22982 23.9073 4.88445 23.9964 5.54224 23.9987C6.2652 24.0062 6.98088 23.8532 7.63819 23.5508C8.27406 23.2632 8.85074 22.8587 9.33846 22.3582C9.82596 21.8572 10.2126 21.2665 10.4773 20.6184C10.7532 19.957 10.8934 19.2465 10.8896 18.5294V16.3993L7.48993 15.8183V16.8515C7.48993 17.5454 7.50067 19.1261 7.10683 19.7491C7.01314 19.9002 6.89956 20.0379 6.76917 20.1585C6.57817 20.3135 6.35935 20.4303 6.12455 20.5025C5.95146 20.557 5.77317 20.5932 5.59258 20.6104C5.54255 20.6104 5.4919 20.6172 5.43756 20.6172H5.41454C4.64406 20.6172 4.11056 20.3851 3.81403 19.9208C3.5175 19.4566 3.36883 18.8824 3.36801 18.1983V5.79911C3.36801 5.11417 3.51668 4.5401 3.81403 4.07689C4.11138 3.61369 4.64488 3.38158 5.41454 3.38055H5.43756C5.49098 3.38055 5.54193 3.38456 5.59258 3.38764C5.772 3.40542 5.94913 3.44168 6.12117 3.49584C6.35592 3.56835 6.57471 3.68522 6.7658 3.84016C6.89594 3.96073 7.0095 4.09819 7.10346 4.2489C7.49913 4.87311 7.48686 6.45384 7.48686 7.14648V8.18129L10.8896 7.59838V5.46804C10.8935 4.75123 10.7533 4.041 10.4773 3.37993C10.2128 2.73182 9.82585 2.14124 9.33785 1.64077H9.3357ZM84.5919 1.27456H84.836C84.9187 1.27971 85.0013 1.26325 85.0757 1.22678C85.1033 1.21143 85.1256 1.18812 85.1399 1.15987C85.1541 1.13162 85.1596 1.09974 85.1555 1.06834C85.1585 1.04087 85.1534 1.01314 85.1408 0.98855C85.1283 0.963962 85.1088 0.943588 85.0849 0.929933C85.0302 0.897874 84.9674 0.882454 84.9041 0.885545H84.5919V1.27456ZM84.3771 0.688879H84.8989C85.2132 0.688879 85.3702 0.818243 85.3698 1.07697C85.3716 1.13369 85.3625 1.19023 85.3428 1.24343C85.3262 1.28679 85.3003 1.32595 85.267 1.3581C85.2342 1.38854 85.196 1.4124 85.1543 1.42838C85.1118 1.44499 85.0675 1.45648 85.0223 1.4626L85.418 2.06677H85.158L84.7623 1.47061H84.5969V2.06801H84.382L84.3771 0.688879ZM85.7658 1.37844C85.7666 1.24963 85.741 1.12204 85.6906 1.00361C85.6436 0.888927 85.5752 0.784304 85.4892 0.695352C85.404 0.607471 85.3025 0.53711 85.1905 0.488206C85.0746 0.437385 84.9495 0.411153 84.8231 0.411153C84.6966 0.411153 84.5715 0.437385 84.4557 0.488206C84.3435 0.537103 84.242 0.607462 84.1567 0.695352C84.0706 0.78443 84.0021 0.889011 83.9547 1.00361C83.9053 1.1225 83.8798 1.25006 83.8798 1.3789C83.8798 1.50775 83.9053 1.63531 83.9547 1.7542C84.0022 1.86876 84.0707 1.97333 84.1567 2.06246C84.242 2.15035 84.3435 2.22071 84.4557 2.2696C84.5715 2.32042 84.6966 2.34666 84.8231 2.34666C84.9495 2.34666 85.0746 2.32042 85.1905 2.2696C85.3025 2.2207 85.404 2.15034 85.4892 2.06246C85.5751 1.97339 85.6434 1.8688 85.6906 1.7542C85.741 1.63544 85.7666 1.50755 85.7658 1.37844V1.37844ZM83.6447 1.38492C83.6428 1.22602 83.6742 1.0685 83.7367 0.922535C83.8043 0.761586 83.9064 0.617649 84.0359 0.501064C84.1654 0.384478 84.319 0.298137 84.4857 0.248243C84.6524 0.198348 84.828 0.186138 84.9999 0.212489C85.1718 0.23884 85.3358 0.303099 85.4801 0.40065C85.6243 0.4982 85.7453 0.626622 85.8342 0.77669C85.9232 0.926759 85.978 1.09475 85.9946 1.2686C86.0112 1.44245 85.9893 1.61783 85.9304 1.78217C85.8716 1.9465 85.7772 2.0957 85.654 2.21905C85.5174 2.35513 85.3497 2.45554 85.1655 2.5115C84.9813 2.56746 84.7863 2.57728 84.5974 2.54009C84.4086 2.5029 84.2317 2.41983 84.0822 2.29815C83.9327 2.17647 83.8151 2.01988 83.7398 1.84206C83.6772 1.69609 83.6459 1.53857 83.6477 1.37968" fill="#DBDFE1"/>
</svg>
