<svg width="139" height="32" viewBox="0 0 139 32" fill="none" xmlns="http://www.w3.org/2000/svg">
<path d="M28.694 9.52588H34.1695C37.3701 9.52588 39.4495 11.2143 39.4495 14.0726V14.1125C39.4495 17.1968 37.1354 18.8055 33.987 18.8055H32.2205V22.5147H28.6875V9.52588H28.694ZM33.9153 15.987C35.1538 15.987 35.936 15.3024 35.936 14.2787V14.2388C35.936 13.1221 35.1538 12.5504 33.8957 12.5504H32.2205V15.987H33.9153Z" fill="#DBDFE1"/>
<path d="M40.9499 9.52588H46.9729C48.9219 9.52588 50.2647 10.0444 51.1252 10.9152C51.8683 11.673 52.2529 12.6567 52.2529 13.9397V13.9796C52.2529 15.987 51.2164 17.3032 49.6325 17.9879L52.6701 22.5147H48.6091L46.0408 18.5795H44.4764V22.5147H40.9434V9.52588H40.9499ZM46.8295 15.761C48.0094 15.761 48.7199 15.1694 48.7199 14.2189V14.179C48.7199 13.142 47.9768 12.6235 46.81 12.6235H44.4829V15.761H46.8295Z" fill="#DBDFE1"/>
<path d="M53.7773 9.52588H64.0243V12.5703H57.2712V14.5579H61.1302V17.3963H57.2712V19.4569H64.1156V22.5213H53.7773V9.52588Z" fill="#DBDFE1"/>
<path d="M128.662 9.52588H138.909V12.5703H132.156V14.5579H136.015V17.3963H132.156V19.4569H139V22.5213H128.662V9.52588Z" fill="#DBDFE1"/>
<path d="M65.2441 20.5869L67.2127 18.1939C68.4838 19.2175 69.8722 19.7493 71.3454 19.7493C72.3101 19.7493 72.8186 19.417 72.8186 18.8586V18.8187C72.8186 18.2603 72.4014 17.9812 70.6545 17.5557C67.9428 16.9242 65.8504 16.1465 65.8504 13.4942V13.4544C65.8504 11.0414 67.7277 9.2998 70.7848 9.2998C72.9489 9.2998 74.6437 9.89141 76.0257 11.0281L74.2592 13.5674C73.0924 12.7165 71.8213 12.2844 70.6936 12.2844C69.8396 12.2844 69.4225 12.6367 69.4225 13.122V13.1619C69.4225 13.7535 69.8592 14.0127 71.6453 14.4249C74.559 15.0763 76.3777 16.0401 76.3777 18.4731V18.5129C76.3777 21.1652 74.3178 22.7473 71.2281 22.7473C68.9531 22.7406 66.8281 22.016 65.2441 20.5869Z" fill="#DBDFE1"/>
<path d="M76.9297 20.5869L78.8983 18.1939C80.1694 19.2175 81.5578 19.7493 83.031 19.7493C83.9957 19.7493 84.5041 19.417 84.5041 18.8586V18.8187C84.5041 18.2603 84.0869 17.9812 82.34 17.5557C79.6283 16.9242 77.5359 16.1465 77.5359 13.4942V13.4544C77.5359 11.0414 79.4132 9.2998 82.4704 9.2998C84.6345 9.2998 86.3293 9.89141 87.7112 11.0281L85.9447 13.5674C84.7779 12.7165 83.5068 12.2844 82.3791 12.2844C81.5252 12.2844 81.108 12.6367 81.108 13.122V13.1619C81.108 13.7535 81.5448 14.0127 83.3308 14.4249C86.2446 15.0763 88.0632 16.0401 88.0632 18.4731V18.5129C88.0632 21.1652 86.0034 22.7473 82.9136 22.7473C80.6452 22.7406 78.5137 22.016 76.9297 20.5869Z" fill="#DBDFE1"/>
<path d="M88.4551 9.52542H92.1836L94.4064 17.0435L96.8639 9.49219H99.9015L102.359 17.0435L104.582 9.52542H108.239L103.982 22.6073H100.905L98.3566 15.1291L95.7883 22.6073H92.7116L88.4551 9.52542Z" fill="#DBDFE1"/>
<path d="M109.744 9.52588H113.277V22.5147H109.744V9.52588Z" fill="#DBDFE1"/>
<path d="M115.606 9.52588H121.629C123.578 9.52588 124.921 10.0444 125.781 10.9152C126.525 11.673 126.909 12.6567 126.909 13.9397V13.9796C126.909 15.987 125.873 17.3032 124.289 17.9879L127.326 22.5147H123.265L120.697 18.5795H119.133V22.5147H115.6V9.52588H115.606ZM121.486 15.761C122.666 15.761 123.376 15.1694 123.376 14.2189V14.179C123.376 13.142 122.633 12.6235 121.466 12.6235H119.139V15.761H121.486Z" fill="#DBDFE1"/>
<path d="M111.51 8.23579C112.792 8.23579 113.831 7.1763 113.831 5.86936C113.831 4.56242 112.792 3.50293 111.51 3.50293C110.228 3.50293 109.189 4.56242 109.189 5.86936C109.189 7.1763 110.228 8.23579 111.51 8.23579Z" fill="#DBDFE1"/>
<path d="M28.6616 22.5143H25.6175L20.1616 15.3884V22.5143H16.6677V9.52555H19.9595L25.2003 16.3855V9.52555H28.7007C26.2628 3.91525 20.7547 0 14.3471 0C7.94599 0 2.4379 3.91525 0 9.52555H8.79991V12.57H2.04679V14.5575H5.88616V17.3959H2.04679V19.4566H8.88465V22.5143H0.0195554C2.46397 28.1047 7.95903 32 14.3536 32C20.7417 32 26.2368 28.1047 28.6877 22.5143H28.6616ZM14.3341 22.5143H10.8076V9.52555H14.3341V22.5143Z" fill="#DBDFE1"/>
</svg>
